<?xml version="1.0" encoding="iso-8859-1"?>
<!-- Uploaded to: SVG Repo, www.svgrepo.com, Generator: SVG Repo Mixer Tools -->
<svg height="800px" width="800px" version="1.1" id="Layer_1" xmlns="http://www.w3.org/2000/svg" xmlns:xlink="http://www.w3.org/1999/xlink" 
	 viewBox="0 0 512 512" xml:space="preserve">
<g>
	<path style="fill:#FFFFFF;" d="M50.7,112.432l136.445,119.637c5.852-14.011,17.079-24.924,31.045-29.392
		c5.452-1.742,10.946-2.626,16.325-2.626c7.566,0.002,14.812,1.711,21.485,5.023c6.744-3.361,14.208-5.136,21.95-5.136
		c5.601,0,11.325,0.92,17.021,2.74c13.957,4.466,25.183,15.377,31.033,29.388l136.448-119.635H50.7z"/>
	<polygon style="fill:#FFFFFF;" points="27.676,129.558 27.676,384.112 180.409,263.476 	"/>
	<path style="fill:#FFFFFF;" d="M320.476,289.51c-0.794,1.389-1.626,2.785-2.539,4.2c-9.827,15.232-25.463,29.751-46.474,43.158
		c-4.541,2.897-9.712,4.345-14.886,4.345c-5.172,0-10.347-1.448-14.886-4.345c-21.011-13.407-36.65-27.928-46.476-43.158
		c-0.912-1.413-1.745-2.811-2.538-4.198L53.34,399.568h406.473L320.476,289.51z"/>
	<polygon style="fill:#FFFFFF;" points="331.591,263.476 484.324,384.112 484.324,129.558 	"/>
</g>
<path d="M512,98.595c0-7.642-6.196-13.838-13.838-13.838H13.838C6.196,84.757,0,90.953,0,98.595v314.811
	c0,7.642,6.196,13.838,13.838,13.838h484.324c7.642,0,13.838-6.196,13.838-13.838V98.595z M27.676,129.558l152.733,133.917
	L27.676,384.112V129.558z M256.576,313.538c-65.439-41.754-47.293-78.954-29.961-84.497c2.826-0.903,5.454-1.313,7.9-1.313
	c6.398,0.002,11.544,2.8,15.69,6.869c1.661,1.629,3.79,2.446,5.916,2.446c2.183,0,4.359-0.861,6.014-2.586
	c4.032-4.202,9.349-6.839,15.818-6.839c2.669,0,5.535,0.45,8.586,1.424C303.867,234.584,322.013,271.784,256.576,313.538z
	 M326.007,232.069c-5.852-14.011-17.076-24.922-31.033-29.388c-5.696-1.82-11.42-2.74-17.021-2.74
	c-7.744,0-15.206,1.773-21.95,5.136c-6.673-3.312-13.919-5.021-21.485-5.023c-5.379,0-10.873,0.884-16.325,2.626
	c-13.966,4.468-25.194,15.381-31.045,29.392L50.7,112.432h411.752L326.007,232.069z M192.676,289.512
	c0.792,1.387,1.624,2.783,2.538,4.198c9.828,15.232,25.465,29.751,46.476,43.158c4.539,2.897,9.714,4.345,14.886,4.345
	c5.174,0,10.346-1.448,14.886-4.345c21.011-13.407,36.65-27.928,46.474-43.158c0.912-1.413,1.745-2.811,2.539-4.2l139.337,110.057
	H53.34L192.676,289.512z M331.591,263.476l152.733-133.917v254.554L331.591,263.476z"/>
<path style="fill:#D21E1E;" d="M286.538,229.04c-3.051-0.974-5.917-1.424-8.586-1.424c-6.467,0-11.786,2.638-15.818,6.839
	c-1.654,1.725-3.831,2.586-6.014,2.586c-2.126,0-4.255-0.816-5.916-2.446c-4.148-4.068-9.292-6.867-15.69-6.869
	c-2.446,0-5.075,0.408-7.9,1.313c-17.33,5.544-35.478,42.743,29.961,84.497C322.013,271.784,303.867,234.584,286.538,229.04z"/>
</svg>